<?xml version="1.0" standalone="no"?>
<!DOCTYPE svg PUBLIC "-//W3C//DTD SVG 20010904//EN"
 "http://www.w3.org/TR/2001/REC-SVG-20010904/DTD/svg10.dtd">
<svg version="1.0" xmlns="http://www.w3.org/2000/svg"
 width="1200.000000pt" height="1200.000000pt" viewBox="0 0 1200.000000 1200.000000"
 preserveAspectRatio="xMidYMid meet">
<metadata>
Created by potrace 1.14, written by Peter Selinger 2001-2017
</metadata>
<g transform="translate(0.000000,1200.000000) scale(0.100000,-0.100000)"
fill="#000000" stroke="none">
<path d="M1167 11944 c-1 -1 -30 -5 -64 -8 -240 -25 -496 -149 -679 -331 -74
-73 -184 -211 -184 -232 0 -6 -4 -13 -8 -15 -8 -3 -60 -106 -86 -170 -32 -81
-62 -209 -73 -313 -8 -82 -8 -9698 0 -9755 31 -213 105 -397 228 -566 84 -115
227 -242 354 -316 68 -39 219 -105 256 -112 13 -2 25 -5 27 -7 1 -1 5 -2 10
-3 85 -21 106 -25 177 -32 81 -9 9619 -8 9722 0 45 4 92 9 105 11 13 3 39 8
58 12 19 3 50 12 68 20 17 7 32 11 32 9 0 -8 142 53 210 91 287 157 497 429
581 753 12 47 15 62 26 145 9 66 10 9690 1 9775 -7 70 -8 73 -33 168 -116 450
-498 793 -965 867 -71 11 -903 13 -4923 12 -2661 0 -4839 -2 -4840 -3z"/>
</g>
</svg>
